<?xml version="1.0" encoding="utf-8"?>
<!-- Generator: Adobe Illustrator 25.2.1, SVG Export Plug-In . SVG Version: 6.00 Build 0)  -->
<svg version="1.1" xmlns="http://www.w3.org/2000/svg" xmlns:xlink="http://www.w3.org/1999/xlink" x="0px" y="0px"
	 width="623.622px" height="283.465px" viewBox="0 0 623.622 283.465" style="enable-background:new 0 0 623.622 283.465;"
	 xml:space="preserve">
<style type="text/css">
	.st0{display:none;}
	.st1{display:inline;fill:#E7EDF1;}
	.st2{display:inline;}
	.st3{font-family:'Poppins-Light';}
	.st4{font-size:5px;}
	.st5{fill:#00467D;}
	.st6{fill:#E60046;}
	.st7{fill:#0091A0;}
	.st8{fill:#00AAE6;}
</style>
<g id="Hilfslinien" class="st0">
	<rect x="595.276" y="0.11" class="st1" width="28.346" height="22.677"/>
	<rect x="0.17" y="0.11" class="st1" width="28.346" height="22.677"/>
	<rect x="595.276" y="260.84" class="st1" width="28.346" height="22.677"/>
	<rect x="0.17" y="260.84" class="st1" width="28.346" height="22.677"/>
	<text transform="matrix(1 0 0 1 9.9524 13.283)" class="st2 st3 st4">1/10</text>
	<text transform="matrix(1 0 0 1 606.3318 13.283)" class="st2 st3 st4">1/10</text>
	<text transform="matrix(1 0 0 1 9.9524 274.2484)" class="st2 st3 st4">1/10</text>
	<text transform="matrix(1 0 0 1 606.3318 274.2484)" class="st2 st3 st4">1/10</text>
</g>
<g id="Ebene_1">
	<g>
		<g>
			<path class="st5" d="M455.957,180.736h26.863c0.231-1.304,0.307-2.686,0.307-4.298c0-12.511-8.519-20.8-20.569-20.8
				c-13.202,0-21.107,9.21-21.107,21.798c0,13.048,8.98,21.874,21.107,21.874c9.978,0,16.885-5.526,19.418-13.278h-9.44
				c-1.919,3.914-5.219,5.91-9.978,5.91c-7.522,0-12.358-5.756-12.358-14.199c0-8.903,4.682-14.737,11.974-14.737
				c6.678,0,11.743,4.221,11.819,10.668h-18.037C454.499,175.134,454.652,178.971,455.957,180.736z M569.473,199.004
				c5.296,0,8.673-3.991,8.673-8.827v-16.502c0-12.05-7.752-18.037-17.346-18.037c-4.989,0-9.748,2.072-12.588,6.293v-5.603h-8.673
				v42.291h8.673v-23.64c0-7.599,4.145-11.743,10.669-11.743c6.524,0,10.592,4.145,10.592,11.743V199.004z M417.888,199.004
				c5.296,0,8.673-3.991,8.673-8.827v-13.815c0-8.597,3.531-11.283,10.439-11.283h2.225v-9.44c-5.833,0-10.131,2.533-12.664,6.831
				v-6.14h-8.673V199.004z M331.848,136.297c-5.219,0-8.673,3.991-8.673,8.827v53.497h8.673v-23.64
				c0-7.599,4.145-11.743,10.668-11.743c6.524,0,10.592,4.145,10.592,11.743v23.64h8.673v-24.945
				c0-10.745-6.217-18.037-16.809-18.037c-5.449,0-10.131,1.996-13.125,5.603V136.297z M510.298,191.713
				c-7.061,0-12.28-5.143-12.28-14.276c0-8.443,4.835-14.199,12.51-14.199c8.213,0,12.741,6.447,12.741,14.199
				C523.268,186.646,517.052,191.713,510.298,191.713z M510.298,199.311c12.203,0,21.951-8.673,21.951-21.874
				c0-12.971-9.21-21.798-21.567-21.798c-12.28,0-21.568,8.596-21.568,21.798C489.114,190.791,498.478,199.311,510.298,199.311z
				 M383.426,180.736h26.863c0.231-1.304,0.307-2.686,0.307-4.298c0-12.511-8.519-20.8-20.569-20.8
				c-13.202,0-21.107,9.21-21.107,21.798c0,13.048,8.98,21.874,21.107,21.874c9.978,0,16.885-5.526,19.418-13.278h-9.44
				c-1.919,3.914-5.219,5.91-9.978,5.91c-7.522,0-12.357-5.756-12.357-14.199c0-8.903,4.682-14.737,11.973-14.737
				c6.678,0,11.743,4.221,11.819,10.668h-18.036C381.968,175.134,382.121,178.971,383.426,180.736z"/>
			<g>
				<path class="st5" d="M400.181,129.22v13.105h-2.15v-5.732h-6.166v5.732h-2.15V129.22h2.15v5.62h6.166v-5.62H400.181z"/>
				<path class="st5" d="M412.738,137.931H404.8c0.063,0.829,0.371,1.497,0.924,1.998c0.553,0.503,1.231,0.755,2.036,0.755
					c1.156,0,1.973-0.485,2.451-1.453h2.319c-0.315,0.956-0.883,1.738-1.707,2.348c-0.823,0.61-1.845,0.914-3.063,0.914
					c-0.993,0-1.883-0.223-2.668-0.669s-1.401-1.074-1.848-1.885c-0.446-0.811-0.669-1.75-0.669-2.819
					c0-1.068,0.217-2.008,0.65-2.819c0.434-0.809,1.043-1.436,1.829-1.875c0.785-0.439,1.688-0.66,2.706-0.66
					c0.981,0,1.854,0.215,2.621,0.642c0.766,0.427,1.363,1.027,1.791,1.801c0.427,0.772,0.641,1.662,0.641,2.667
					C412.813,137.266,412.787,137.617,412.738,137.931z M410.569,136.196c-0.013-0.792-0.296-1.426-0.849-1.904
					c-0.553-0.478-1.238-0.716-2.055-0.716c-0.742,0-1.376,0.235-1.904,0.706s-0.843,1.11-0.943,1.914H410.569z"/>
				<path class="st5" d="M417.357,128.372v13.953h-2.15v-13.953H417.357z"/>
				<path class="st5" d="M435.333,132.276c0.648,0.34,1.157,0.841,1.528,1.508c0.37,0.666,0.556,1.47,0.556,2.412v6.129h-2.13
					v-5.808c0-0.931-0.233-1.644-0.698-2.14c-0.465-0.497-1.101-0.745-1.905-0.745c-0.805,0-1.443,0.248-1.914,0.745
					c-0.471,0.497-0.707,1.209-0.707,2.14v5.808h-2.13v-5.808c0-0.931-0.233-1.644-0.698-2.14c-0.465-0.497-1.101-0.745-1.905-0.745
					c-0.805,0-1.443,0.248-1.914,0.745c-0.471,0.497-0.707,1.209-0.707,2.14v5.808h-2.15v-10.389h2.15v1.188
					c0.352-0.427,0.798-0.76,1.339-1c0.541-0.238,1.118-0.358,1.735-0.358c0.829,0,1.571,0.177,2.225,0.529s1.156,0.862,1.508,1.527
					c0.314-0.628,0.804-1.128,1.47-1.498c0.666-0.372,1.383-0.557,2.15-0.557C433.954,131.765,434.686,131.936,435.333,132.276z"/>
				<path class="st5" d="M447.834,132.276c0.622,0.34,1.112,0.841,1.47,1.508c0.358,0.666,0.537,1.47,0.537,2.412v6.129h-2.13
					v-5.808c0-0.931-0.233-1.644-0.698-2.14c-0.465-0.497-1.101-0.745-1.905-0.745c-0.805,0-1.443,0.248-1.914,0.745
					c-0.471,0.497-0.707,1.209-0.707,2.14v5.808h-2.15v-13.953h2.15v4.77c0.365-0.439,0.826-0.779,1.386-1.019
					c0.559-0.238,1.171-0.358,1.838-0.358C446.504,131.765,447.211,131.936,447.834,132.276z"/>
				<path class="st5" d="M454.612,141.825c-0.792-0.446-1.414-1.074-1.867-1.885c-0.453-0.811-0.679-1.75-0.679-2.819
					c0-1.056,0.232-1.992,0.698-2.809s1.1-1.446,1.905-1.885c0.804-0.439,1.703-0.66,2.696-0.66s1.892,0.221,2.696,0.66
					c0.805,0.439,1.439,1.068,1.905,1.885c0.465,0.818,0.698,1.753,0.698,2.809c0,1.056-0.239,1.993-0.716,2.809
					c-0.478,0.818-1.128,1.449-1.952,1.895c-0.824,0.446-1.731,0.669-2.725,0.669C456.29,142.494,455.403,142.271,454.612,141.825z
					 M458.826,140.232c0.484-0.264,0.877-0.66,1.178-1.188c0.302-0.529,0.453-1.169,0.453-1.924c0-0.753-0.144-1.392-0.433-1.914
					c-0.29-0.52-0.673-0.914-1.15-1.177c-0.478-0.265-0.993-0.397-1.547-0.397s-1.065,0.132-1.536,0.397
					c-0.471,0.264-0.845,0.657-1.122,1.177c-0.277,0.522-0.415,1.16-0.415,1.914c0,1.12,0.285,1.983,0.857,2.593
					c0.572,0.61,1.292,0.914,2.159,0.914C457.823,140.627,458.342,140.495,458.826,140.232z"/>
				<path class="st5" d="M467.131,128.372v13.953h-2.15v-13.953H467.131z"/>
				<path class="st5" d="M472.843,133.689v5.75c0,0.39,0.091,0.669,0.274,0.84c0.182,0.169,0.493,0.253,0.933,0.253h1.32v1.792
					h-1.698c-0.968,0-1.71-0.226-2.225-0.679c-0.515-0.453-0.773-1.188-0.773-2.206v-5.75h-1.226v-1.753h1.226v-2.583h2.168v2.583
					h2.527v1.753H472.843z"/>
				<path class="st5" d="M479.725,140.571h4.714v1.753h-7.203v-1.753l4.732-6.882h-4.732v-1.753h7.203v1.753L479.725,140.571z"/>
				<path class="st5" d="M495.337,134.593v1.811h-7.749v-1.811H495.337z"/>
				<path class="st5" d="M500.842,140.458h6.09v1.867h-8.635v-1.679l6.071-9.559h-6.071v-1.867h8.635v1.679L500.842,140.458z"/>
				<path class="st5" d="M518.922,137.931h-7.938c0.063,0.829,0.371,1.497,0.924,1.998c0.553,0.503,1.231,0.755,2.036,0.755
					c1.156,0,1.973-0.485,2.451-1.453h2.319c-0.315,0.956-0.883,1.738-1.707,2.348c-0.823,0.61-1.845,0.914-3.063,0.914
					c-0.993,0-1.883-0.223-2.668-0.669c-0.785-0.446-1.401-1.074-1.848-1.885c-0.446-0.811-0.669-1.75-0.669-2.819
					c0-1.068,0.217-2.008,0.65-2.819c0.434-0.809,1.043-1.436,1.829-1.875c0.785-0.439,1.688-0.66,2.706-0.66
					c0.981,0,1.854,0.215,2.621,0.642c0.766,0.427,1.363,1.027,1.791,1.801c0.427,0.772,0.641,1.662,0.641,2.667
					C518.998,137.266,518.972,137.617,518.922,137.931z M516.754,136.196c-0.013-0.792-0.296-1.426-0.849-1.904
					c-0.553-0.478-1.238-0.716-2.055-0.716c-0.742,0-1.376,0.235-1.904,0.706s-0.843,1.11-0.943,1.914H516.754z"/>
				<path class="st5" d="M528.831,132.276c0.647,0.34,1.153,0.841,1.518,1.508c0.364,0.666,0.546,1.47,0.546,2.412v6.129h-2.13
					v-5.808c0-0.931-0.233-1.644-0.698-2.14c-0.465-0.497-1.101-0.745-1.905-0.745c-0.805,0-1.443,0.248-1.914,0.745
					c-0.471,0.497-0.707,1.209-0.707,2.14v5.808h-2.15v-10.389h2.15v1.188c0.352-0.427,0.802-0.76,1.348-1
					c0.547-0.238,1.128-0.358,1.744-0.358C527.45,131.765,528.183,131.936,528.831,132.276z"/>
				<path class="st5" d="M536.419,133.689v5.75c0,0.39,0.091,0.669,0.274,0.84c0.182,0.169,0.493,0.253,0.933,0.253h1.32v1.792
					h-1.698c-0.968,0-1.71-0.226-2.225-0.679s-0.773-1.188-0.773-2.206v-5.75h-1.226v-1.753h1.226v-2.583h2.168v2.583h2.527v1.753
					H536.419z"/>
				<path class="st5" d="M544.8,132.21c0.521-0.296,1.14-0.444,1.856-0.444v2.225h-0.546c-0.842,0-1.48,0.215-1.914,0.642
					c-0.433,0.427-0.65,1.169-0.65,2.225v5.468h-2.15v-10.389h2.15v1.508C543.86,132.916,544.278,132.504,544.8,132.21z"/>
				<path class="st5" d="M558.328,131.936v10.389h-2.15v-1.226c-0.34,0.427-0.783,0.764-1.329,1.008
					c-0.546,0.245-1.128,0.368-1.744,0.368c-0.818,0-1.549-0.169-2.197-0.508c-0.647-0.34-1.156-0.843-1.527-1.508
					c-0.371-0.667-0.556-1.471-0.556-2.414v-6.108h2.13v5.787c0,0.931,0.232,1.644,0.698,2.14c0.465,0.497,1.1,0.745,1.905,0.745
					c0.804,0,1.442-0.248,1.914-0.745c0.471-0.497,0.707-1.209,0.707-2.14v-5.787H558.328z"/>
				<path class="st5" d="M576.21,132.276c0.648,0.34,1.157,0.841,1.528,1.508c0.37,0.666,0.556,1.47,0.556,2.412v6.129h-2.13v-5.808
					c0-0.931-0.233-1.644-0.698-2.14c-0.465-0.497-1.101-0.745-1.905-0.745c-0.805,0-1.443,0.248-1.914,0.745
					c-0.471,0.497-0.707,1.209-0.707,2.14v5.808h-2.13v-5.808c0-0.931-0.233-1.644-0.698-2.14c-0.465-0.497-1.101-0.745-1.905-0.745
					c-0.805,0-1.443,0.248-1.914,0.745c-0.471,0.497-0.707,1.209-0.707,2.14v5.808h-2.15v-10.389h2.15v1.188
					c0.352-0.427,0.798-0.76,1.339-1c0.541-0.238,1.118-0.358,1.735-0.358c0.829,0,1.571,0.177,2.225,0.529
					c0.654,0.351,1.156,0.862,1.508,1.527c0.314-0.628,0.804-1.128,1.47-1.498c0.666-0.372,1.383-0.557,2.15-0.557
					C574.831,131.765,575.563,131.936,576.21,132.276z"/>
			</g>
		</g>
	</g>
	<path class="st6" d="M77.439,163.035c2.3-0.439,4.628-0.88,6.958-1.347l0.108-0.066c-3.852-6.27-6.844-13.071-8.892-20.216
		c-3.217-11.218-3.998-22.713-2.322-34.164c1.426-9.739,4.579-19.06,9.371-27.705c5.458-9.846,12.729-18.296,21.612-25.117
		c8.094-6.215,17.219-10.807,27.121-13.646l-1.875-6.54c-10.727,3.076-20.615,8.052-29.389,14.791
		c-9.627,7.392-17.506,16.548-23.418,27.215c-5.191,9.364-8.607,19.464-10.152,30.018c-1.817,12.414-0.972,24.871,2.513,37.024
		C71.061,150.213,73.875,156.843,77.439,163.035z"/>
	<g>
		<path class="st7" d="M253.259,165.042c0.177,0.519,0.336,1.04,0.482,1.564C253.595,166.082,253.436,165.561,253.259,165.042z"/>
		<polygon class="st7" points="256.766,162.078 256.771,162.088 256.769,162.083 		"/>
		<polygon class="st7" points="249.985,151.752 249.985,151.753 249.985,151.752 		"/>
		<polygon class="st7" points="244.142,145.687 244.15,145.695 244.147,145.692 		"/>
		<path class="st7" d="M253.79,166.781c0.298,1.101,0.53,2.214,0.688,3.338C254.319,168.994,254.088,167.882,253.79,166.781z"/>
		<polygon class="st7" points="251.485,153.617 251.486,153.619 251.486,153.618 		"/>
		<polygon class="st7" points="259.911,171.008 259.913,171.014 259.912,171.011 		"/>
		<path class="st7" d="M248.859,156.553c0.34,0.485,0.667,0.973,0.979,1.463C249.525,157.527,249.199,157.039,248.859,156.553z"/>
		<path class="st7" d="M249.9,158.114c0.651,1.028,1.239,2.067,1.763,3.117C251.139,160.181,250.55,159.142,249.9,158.114z"/>
		<path class="st7" d="M253.246,165.002c-0.427-1.248-0.945-2.48-1.548-3.698c0.335,0.676,0.644,1.356,0.925,2.041
			C252.848,163.895,253.056,164.447,253.246,165.002z"/>
		<path class="st7" d="M254.741,173.835c0,1.745-0.262,3.745-0.745,5.914c-0.174,0.78-0.377,1.582-0.608,2.403
			C254.264,179.046,254.741,176.207,254.741,173.835c0-1.242-0.091-2.47-0.26-3.684c0.104,0.75,0.18,1.505,0.22,2.265
			C254.726,172.887,254.741,173.36,254.741,173.835z"/>
		<path class="st7" d="M260.785,178.051c-0.063-2.352-0.353-4.701-0.873-7.037c0-0.002-0.001-0.004-0.001-0.006
			c-0.163-0.733-0.345-1.465-0.554-2.195c-0.645-2.262-1.51-4.507-2.587-6.725c-0.002-0.003-0.003-0.007-0.005-0.01
			c-0.331-0.679-0.677-1.357-1.048-2.03c-1.198-2.177-2.611-4.323-4.232-6.429c0,0-0.001-0.001-0.001-0.001
			c-0.481-0.625-0.98-1.247-1.5-1.865c0,0,0,0,0,0c-1.736-2.067-3.681-4.089-5.835-6.058c-0.003-0.003-0.006-0.005-0.008-0.007
			c-0.599-0.547-1.216-1.089-1.847-1.628c-3.778-3.222-8.126-6.287-13.06-9.141c-10.823-6.262-23.534-12.415-36.998-16.147
			c0.044,0.16,0.087,0.318,0.131,0.478c0.294,1.068,0.589,2.149,0.856,3.242c11.366,3.274,22.061,8.315,31.27,13.643
			c10.81,6.254,19.155,13.02,24.317,20.349c0.017,0.023,0.032,0.047,0.049,0.07c0.34,0.485,0.667,0.973,0.979,1.463
			c0.021,0.032,0.042,0.065,0.062,0.097c0.65,1.028,1.239,2.067,1.763,3.117c0.005,0.01,0.01,0.019,0.015,0.029
			c0.007,0.015,0.013,0.03,0.02,0.044c0.604,1.218,1.121,2.45,1.548,3.698c0.004,0.013,0.009,0.027,0.013,0.04
			c0.177,0.519,0.336,1.04,0.482,1.564c0.016,0.058,0.033,0.116,0.049,0.175c0.298,1.101,0.53,2.214,0.688,3.338
			c0,0.004,0.001,0.008,0.002,0.012c0.001,0.007,0.001,0.013,0.002,0.02c0.169,1.215,0.26,2.442,0.26,3.684
			c0,2.372-0.478,5.211-1.353,8.318c-0.008,0.029-0.013,0.055-0.021,0.084c-0.001,0-0.002,0.001-0.003,0.001
			c-4.436,15.631-19.124,38.127-36.35,43.838c-22.352,7.41-53.747-9.851-78.479-9.851c-24.732,0-38.367,10.195-60.033,0.31
			c-20.488-9.347-26.572-23.734-20.382-36.218c7.298-14.718,34.873-12.278,53.743-23.194c17.326-10.024,21.656-29.874,39.265-36.046
			c-0.206-1.27-0.442-2.537-0.706-3.8c-23.103,6.187-20.961,24.603-41.276,36.356c-21.047,12.177-56.919,7.327-63.921,25.38
			c-6.911,17.82,2.147,37.959,27.111,47.164c22.809,8.41,40.333,0.221,67.919,0.221s54.407,18.413,79.557,9.418
			c22.868-8.179,40.959-40.78,40.992-56.756c0-0.015,0.001-0.031,0.001-0.046C260.805,178.693,260.794,178.372,260.785,178.051z"/>
		<path class="st7" d="M190.708,121.799c-0.172-0.652-0.349-1.302-0.527-1.946c-0.16-0.58-0.319-1.165-0.475-1.751
			c-2.58-0.651-5.184-1.208-7.806-1.656c0.328,1.197,0.65,2.404,0.948,3.622C185.493,120.538,188.116,121.119,190.708,121.799z"/>
		<path class="st7" d="M244.15,145.695c2.154,1.968,4.099,3.991,5.835,6.058C248.249,149.685,246.304,147.663,244.15,145.695z"/>
		<path class="st7" d="M156.159,119.759c1.5-0.263,3.002-0.472,4.506-0.633c-0.247-1.186-0.524-2.366-0.813-3.542
			c-2.284,0.242-4.565,0.589-6.837,1.069c-0.134,0.028-0.256,0.063-0.389,0.092c0.255,1.214,0.492,2.433,0.696,3.657
			C154.237,120.156,155.173,119.932,156.159,119.759z"/>
		<path class="st7" d="M260.785,178.051L260.785,178.051c-0.062-2.351-0.353-4.701-0.873-7.037
			C260.432,173.35,260.723,175.699,260.785,178.051z"/>
		<polygon class="st7" points="254.479,170.131 254.477,170.119 254.479,170.131 		"/>
		<path class="st7" d="M253.741,166.606c0.016,0.058,0.033,0.116,0.049,0.175C253.774,166.722,253.757,166.664,253.741,166.606z"/>
		<path class="st7" d="M253.246,165.002c0.004,0.013,0.009,0.027,0.013,0.04C253.255,165.029,253.25,165.016,253.246,165.002z"/>
		<path class="st7" d="M170.414,118.765c-0.283-1.192-0.592-2.377-0.908-3.557c-2.454-0.062-4.912-0.009-7.368,0.172
			c0.286,1.175,0.561,2.355,0.804,3.542C165.434,118.739,167.927,118.695,170.414,118.765z"/>
		<path class="st7" d="M256.771,162.088c1.077,2.218,1.942,4.463,2.587,6.725l0,0C258.712,166.551,257.848,164.306,256.771,162.088z
			"/>
		<path class="st7" d="M248.81,156.484c0.017,0.023,0.032,0.047,0.049,0.07C248.842,156.53,248.827,156.507,248.81,156.484z"/>
		<path class="st7" d="M249.838,158.017c0.021,0.032,0.042,0.065,0.062,0.097C249.879,158.082,249.858,158.049,249.838,158.017z"/>
		<path class="st7" d="M180.413,119.67c-0.302-1.179-0.623-2.352-0.943-3.513c-0.009-0.032-0.018-0.065-0.027-0.098
			c-2.511-0.361-5.035-0.617-7.566-0.756c0.313,1.18,0.612,2.368,0.887,3.564C175.326,119.016,177.878,119.289,180.413,119.67z"/>
		<path class="st7" d="M251.486,153.619c1.621,2.105,3.034,4.251,4.232,6.429l0,0C254.52,157.87,253.107,155.724,251.486,153.619z"
			/>
		<path class="st7" d="M251.678,161.26c-0.005-0.01-0.01-0.019-0.015-0.029c0.005,0.01,0.009,0.02,0.014,0.03
			C251.677,161.26,251.677,161.26,251.678,161.26z"/>
		<path class="st7" d="M253.367,182.237c0.008-0.029,0.013-0.055,0.021-0.084c-0.008,0.028-0.017,0.057-0.024,0.085
			C253.365,182.237,253.366,182.237,253.367,182.237z"/>
		<path class="st7" d="M260.785,178.051L260.785,178.051c0.009,0.321,0.02,0.642,0.02,0.963c0,0.015-0.001,0.031-0.001,0.046
			c0-0.015,0.001-0.031,0.001-0.046C260.805,178.693,260.794,178.372,260.785,178.051z"/>
		<path class="st7" d="M259.357,168.813c0.208,0.73,0.391,1.462,0.554,2.195C259.748,170.275,259.565,169.543,259.357,168.813
			L259.357,168.813z"/>
		<path class="st7" d="M254.481,170.151c-0.001-0.007-0.001-0.013-0.002-0.02c0,0,0,0,0,0
			C254.479,170.137,254.48,170.144,254.481,170.151z"/>
		<path class="st7" d="M255.718,160.048c0.371,0.674,0.718,1.351,1.048,2.03C256.436,161.399,256.089,160.722,255.718,160.048
			L255.718,160.048z"/>
		<path class="st7" d="M251.698,161.304c-0.007-0.015-0.013-0.03-0.02-0.044c0,0-0.001,0-0.001,0
			C251.684,161.275,251.691,161.29,251.698,161.304z"/>
		<path class="st7" d="M251.485,153.617c-0.481-0.625-0.98-1.247-1.5-1.865C250.504,152.37,251.003,152.992,251.485,153.617z"/>
		<path class="st7" d="M244.142,145.687c-0.599-0.547-1.216-1.089-1.847-1.628C242.926,144.598,243.542,145.14,244.142,145.687z"/>
	</g>
	<g>
		<path class="st6" d="M204.401,149.692c3.773-6.199,6.326-12.938,7.623-20.072c-2.101-0.981-4.249-1.925-6.438-2.818
			c-1.042,6.906-3.381,13.413-6.997,19.353c-1.561,2.564-3.335,4.97-5.296,7.215c1.624,1.557,3.559,2.896,5.587,3.93
			C200.91,154.919,202.762,152.385,204.401,149.692z"/>
		<path class="st6" d="M138.928,169.154c-4.104-1.211-8.037-2.91-11.751-5.108c-4.32-2.556-8.21-5.693-11.618-9.349
			c-1.168,0.856-2.392,1.671-3.696,2.425c-0.721,0.417-1.458,0.808-2.202,1.188c4.067,4.572,8.773,8.468,14.053,11.591
			c4.794,2.836,9.908,4.936,15.264,6.315C138.59,173.822,138.561,171.455,138.928,169.154z"/>
		<path class="st6" d="M112.556,151.189c-4.461-5.711-7.64-12.146-9.448-19.124c-1.647-6.358-2.072-12.92-1.265-19.502
			c0.906-7.375,3.292-14.313,7.092-20.621c3.311-5.497,7.566-10.297,12.646-14.266l-4.188-5.361
			c-5.738,4.483-10.544,9.906-14.286,16.117c-4.296,7.132-6.994,14.972-8.017,23.302c-0.912,7.434-0.431,14.848,1.431,22.036
			c1.991,7.686,5.462,14.779,10.3,21.104c0.791-0.395,1.569-0.804,2.324-1.24c1.268-0.734,2.444-1.494,3.549-2.275
			C112.649,151.301,112.601,151.247,112.556,151.189z"/>
		<path class="st6" d="M190.256,165.576c2.546-1.989,4.899-4.174,7.067-6.521c-2.011-1.082-3.921-2.439-5.563-4.008
			c-1.763,1.848-3.658,3.578-5.693,5.168c-1.236,0.966-2.512,1.859-3.814,2.704c1.613,1.678,3.49,3.194,5.501,4.509
			C188.602,166.833,189.436,166.217,190.256,165.576z"/>
		<path class="st6" d="M141.374,176.785c1.725,0.368,3.469,0.676,5.239,0.893c2.438,0.3,4.873,0.449,7.299,0.449
			c0.208,0,0.417-0.008,0.625-0.01c-1.387-2.275-2.406-4.577-3.041-6.863c-1.349-0.062-2.701-0.162-4.053-0.328
			c-2.141-0.263-4.24-0.666-6.304-1.177C140.804,172.031,140.884,174.389,141.374,176.785z"/>
		<path class="st6" d="M168.65,176.249c0.825-0.214,1.639-0.454,2.45-0.702c-0.351-0.341-0.704-0.682-1.04-1.034
			c-1.464-1.533-2.71-3.109-3.744-4.704c-4.083,1.003-8.245,1.502-12.44,1.499c0.699,2.234,1.797,4.491,3.29,6.723
			C161.036,177.818,164.874,177.226,168.65,176.249z"/>
		<path class="st6" d="M173.546,174.736c4.269-1.508,8.333-3.49,12.151-5.939c-1.868-1.3-3.616-2.771-5.156-4.384
			c-0.089-0.093-0.17-0.187-0.257-0.281c-3.664,2.153-7.563,3.843-11.661,5.05c0.875,1.27,1.899,2.53,3.079,3.766
			C172.288,173.562,172.909,174.155,173.546,174.736z"/>
	</g>
	<g>
		<path class="st8" d="M280.525,123.494c-3.251-2.196-6.613-4.467-9.511-6.858C253.61,102.275,246.117,85.55,240.459,71
			c-9.077-23.343-38.401-31.223-61.386-26.786c-5.223,1.008-9.779,2.484-13.742,4.309c0.705,0.116,1.411,0.225,2.114,0.362
			c0.68,0.132,1.349,0.297,2.023,0.448c3.286-1.283,6.681-2.244,10.035-2.891c3.93-0.759,8.048-1.146,12.217-1.146
			c19.256,0,39.529,8.281,46.625,26.528c5.761,14.816,13.4,31.855,31.225,46.563c2.982,2.46,6.39,4.762,9.686,6.988
			c11.731,7.924,22.812,15.408,19.428,30.911c-2.44,11.18-19.804,17.1-37.899,21.766c0.009,0.321,0.02,0.642,0.02,0.963
			c0,0.448-0.015,0.91-0.043,1.383c18.96-4.861,37.402-11.092,40.138-23.628C304.611,139.763,292.367,131.492,280.525,123.494z"/>
		<path class="st8" d="M224.503,188.37c-7.59,3.658-10.954,8.339-13.921,12.468c-3.625,5.044-6.756,9.4-17.016,10.591
			c-13.028,1.514-31.435-6.347-42.826-18.279c-7.399-7.751-10.795-16.17-9.564-23.705c0.986-6.034,3.486-10.969,6.133-16.193
			c3.391-6.693,6.896-13.614,6.896-22.935c0-8.859-2.381-17.497-4.685-25.851c-2.194-7.958-4.267-15.475-4.346-22.959
			c-0.16-15.164,9.15-25.064,20.658-30.598c-1.337-0.237-2.677-0.434-4.019-0.592c-13.809,7.805-19.023,20.301-18.907,31.214
			c0.082,7.779,2.193,15.434,4.427,23.538c2.263,8.208,4.603,16.695,4.603,25.248c0,8.778-3.231,15.157-6.652,21.91
			c-2.608,5.148-5.305,10.472-6.348,16.853c-1.349,8.254,2.26,17.358,10.162,25.636c5.669,5.938,13.25,11.135,21.347,14.631
			c6.878,2.971,13.762,4.536,19.778,4.536c1.24,0,2.443-0.066,3.603-0.201c11.255-1.306,14.821-6.267,18.596-11.52
			c2.947-4.101,5.995-8.341,13.064-11.748c5.893-2.841,15.376-5.142,25.417-7.578c0.817-0.198,1.638-0.398,2.462-0.598
			c0.242-0.852,0.45-1.68,0.63-2.487c-1.215,0.297-2.425,0.591-3.626,0.882C240.209,183.096,230.612,185.426,224.503,188.37z"/>
		<path class="st8" d="M223.368,178.971c-6.456,3.111-9.313,7.087-11.834,10.595c-3.165,4.404-5.666,7.883-14.261,8.881
			c-10.959,1.267-26.459-5.348-36.052-15.399c-6.215-6.51-9.069-13.573-8.038-19.887c0.829-5.074,2.936-9.233,5.167-13.638
			c2.875-5.676,5.848-11.544,5.848-19.464c0-7.513-2.016-14.825-3.966-21.897c-1.852-6.716-3.601-13.059-3.667-19.362
			c-0.186-17.58,14.794-26.748,28.874-29.466c0.859-0.166,1.729-0.308,2.607-0.432c-1.073-0.612-2.161-1.195-3.263-1.747
			c-22.668,4.465-30.617,19.269-30.486,31.669c0.07,6.598,1.94,13.381,3.748,19.94c1.91,6.927,3.885,14.089,3.885,21.295
			c0,7.378-2.722,12.751-5.604,18.439c-2.211,4.363-4.497,8.876-5.383,14.297c-1.149,7.032,1.917,14.781,8.635,21.818
			c9.325,9.769,23.462,16.261,34.826,16.261c1.069,0,2.114-0.058,3.128-0.176c9.59-1.112,12.626-5.337,15.841-9.81
			c2.478-3.448,5.041-7.014,10.977-9.875c4.964-2.393,12.971-4.335,21.448-6.393c2.933-0.711,5.927-1.438,8.901-2.206
			c-0.041-0.767-0.116-1.529-0.222-2.285c-3.074,0.797-6.178,1.552-9.213,2.288C236.668,174.505,228.547,176.475,223.368,178.971z"
			/>
		<path class="st8" d="M288.191,152.457c3.163-14.491-7.237-21.516-17.294-28.309c-2.745-1.854-5.583-3.771-8.027-5.788
			c-14.678-12.112-21.001-26.226-25.776-38.503c-7.25-18.647-29.702-25.676-48.569-23.305c1.121,0.623,2.225,1.28,3.314,1.966
			c1.291-0.09,2.59-0.15,3.899-0.15c16.213,0,33.274,6.963,39.243,22.312c4.878,12.544,11.347,26.971,26.446,39.431
			c2.527,2.085,5.412,4.033,8.201,5.917c9.865,6.664,19.183,12.957,16.348,25.945c-1.804,8.264-13.424,13.112-26.618,16.841
			c0.208,0.731,0.391,1.464,0.555,2.198C273.793,167.085,286.138,161.858,288.191,152.457z"/>
		<path class="st8" d="M275.481,148.144c2.614-11.976-5.941-17.755-14.214-23.344c-2.239-1.512-4.554-3.075-6.542-4.717
			c-11.953-9.862-17.105-21.363-20.996-31.369c-4.527-11.642-16.249-17.775-28.413-19.204c0.822,0.858,1.621,1.739,2.401,2.639
			c10.42,1.855,20.033,7.446,23.898,17.386c3.995,10.272,9.292,22.087,21.666,32.297c2.072,1.71,4.433,3.305,6.716,4.847
			c7.999,5.403,15.554,10.507,13.268,20.979c-1.265,5.795-8.592,9.522-17.548,12.388c0.372,0.675,0.719,1.354,1.051,2.035
			C266.221,159.003,274.012,154.876,275.481,148.144z"/>
		<path class="st8" d="M222.232,169.574c-5.322,2.565-7.672,5.836-9.746,8.721c-2.556,3.557-4.575,6.365-11.506,7.17
			c-8.896,1.032-21.481-4.35-29.278-12.517c-5.031-5.271-7.344-10.978-6.512-16.07c0.672-4.113,2.386-7.497,4.201-11.08
			c2.36-4.658,4.8-9.476,4.8-15.995c0-6.166-1.651-12.154-3.248-17.944c-1.509-5.473-2.934-10.643-2.988-15.765
			c-0.15-14.234,12-21.662,23.42-23.866c2.695-0.521,5.521-0.786,8.379-0.786c1.488,0,2.984,0.083,4.476,0.228
			c-0.781-0.834-1.581-1.648-2.402-2.442c-3.71-0.164-7.401,0.101-10.883,0.773c-18.788,3.627-25.366,15.869-25.258,26.116
			c0.057,5.418,1.588,10.972,3.069,16.344c1.557,5.646,3.166,11.482,3.166,17.342c0,5.979-2.213,10.346-4.556,14.971
			c-1.813,3.579-3.688,7.279-4.417,11.739c-0.949,5.811,1.575,12.204,7.109,18.001c7.656,8.02,19.266,13.348,28.606,13.348
			c0.879,0,1.741-0.048,2.575-0.145c7.926-0.919,10.432-4.406,13.085-8.098c2.01-2.797,4.088-5.688,8.889-8.002
			c4.035-1.945,10.566-3.529,17.481-5.207c3.938-0.955,8.01-1.945,11.926-3.064c-0.287-0.7-0.601-1.395-0.945-2.086
			c-3.776,1.067-7.711,2.023-11.515,2.946C233.128,165.913,226.483,167.525,222.232,169.574z"/>
		<path class="st8" d="M221.096,160.177c-4.188,2.019-6.031,4.584-7.658,6.848c-1.946,2.708-3.484,4.848-8.75,5.459
			c-6.834,0.782-16.507-3.351-22.506-9.637c-3.847-4.03-5.617-8.381-4.984-12.252c0.515-3.152,1.836-5.762,3.236-8.523
			c1.845-3.642,3.752-7.407,3.752-12.526c0-4.818-1.286-9.481-2.529-13.991c-1.167-4.229-2.268-8.225-2.31-12.166
			c-0.115-10.889,9.206-16.576,17.967-18.267c2.078-0.401,4.255-0.606,6.459-0.606c3.715,0,7.497,0.589,10.984,1.8
			c-0.515-0.957-1.047-1.907-1.61-2.844c-5.333-1.42-11.093-1.575-16.264-0.576c-14.731,2.844-19.89,12.463-19.805,20.517
			c0.045,4.236,1.237,8.563,2.391,12.746c1.203,4.363,2.447,8.876,2.447,13.388c0,4.578-1.704,7.941-3.507,11.501
			c-1.416,2.795-2.879,5.685-3.451,9.184c-0.75,4.589,1.232,9.626,5.583,14.184c5.985,6.271,15.072,10.436,22.388,10.436
			c0.69,0,1.366-0.037,2.02-0.113c6.262-0.727,8.238-3.477,10.331-6.388c1.541-2.144,3.134-4.36,6.801-6.128
			c3.107-1.498,8.163-2.725,13.516-4.023c4.02-0.976,8.22-1.996,12.091-3.235c-0.493-0.637-1.011-1.27-1.552-1.899
			c-3.624,1.121-7.494,2.062-11.073,2.93C229.588,157.32,224.419,158.574,221.096,160.177z"/>
		<path class="st8" d="M262.772,143.832c2.065-9.461-4.948-14.198-11.136-18.378c-1.732-1.17-3.523-2.38-5.056-3.646
			c-9.227-7.612-13.208-16.502-16.216-24.236c-2.5-6.43-7.795-10.717-14.035-13.082c0.581,1.048,1.133,2.109,1.658,3.18
			c4.581,2.271,8.348,5.798,10.264,10.724c3.111,8.001,7.239,17.203,16.886,25.164c1.617,1.334,3.454,2.575,5.23,3.774
			c6.133,4.144,11.927,8.057,10.189,16.015c-0.808,3.702-5.104,6.346-10.572,8.405c0.519,0.618,1.019,1.24,1.5,1.866
			C257.3,151.337,261.791,148.325,262.772,143.832z"/>
		<path class="st8" d="M250.063,139.518c1.516-6.945-3.57-10.381-8.057-13.412c-1.281-0.865-2.492-1.683-3.57-2.573
			c-6.504-5.366-9.313-11.643-11.437-17.104c-0.93-2.391-2.397-4.365-4.208-5.96c0.423,1.578,0.785,3.176,1.1,4.79
			c0.379,0.626,0.72,1.284,0.995,1.992c1.608,4.137,4.602,11.838,12.106,18.031c1.162,0.959,2.475,1.846,3.745,2.703
			c4.453,3.008,8.298,5.605,7.11,11.048c-0.458,2.102-2.629,3.715-5.556,5.023c0.634,0.541,1.254,1.085,1.856,1.635
			C247.22,144.164,249.476,142.208,250.063,139.518z"/>
		<path class="st8" d="M202.819,95.787c-8.931,1.725-14.43,7.44-14.351,14.917c0.032,3.056,0.886,6.153,1.712,9.149
			c0.85,3.082,1.729,6.271,1.729,9.435c0,3.178-1.195,5.536-2.459,8.032c-1.018,2.01-2.07,4.088-2.485,6.626
			c-0.55,3.368,0.891,7.05,4.058,10.367c4.315,4.521,10.875,7.522,16.166,7.522c0.501,0,0.992-0.027,1.467-0.083
			c4.597-0.533,6.111-2.64,7.575-4.677c1.072-1.492,2.18-3.034,4.713-4.255c2.178-1.05,5.757-1.918,9.546-2.837
			c3.301-0.801,6.767-1.646,9.861-2.725c-0.656-0.577-1.337-1.149-2.033-1.718c-2.71,0.863-5.654,1.581-8.362,2.238
			c-3.909,0.948-7.601,1.844-9.996,2.998c-3.053,1.472-4.391,3.332-5.57,4.974c-1.39,1.934-2.394,3.331-5.996,3.749
			c-4.76,0.552-11.527-2.35-15.73-6.753c-2.665-2.791-3.893-5.787-3.46-8.437c0.358-2.191,1.287-4.025,2.27-5.967
			c1.33-2.624,2.704-5.338,2.704-9.057c0-3.472-0.92-6.81-1.811-10.038c-0.824-2.987-1.602-5.809-1.631-8.569
			c-0.08-7.543,6.412-11.488,12.513-12.666c1.461-0.282,2.992-0.427,4.541-0.427c4.674,0,9.494,1.324,12.979,4.132
			c-0.291-1.131-0.61-2.252-0.957-3.364C214.801,95.491,208.344,94.722,202.819,95.787z"/>
	</g>
	<path class="st6" d="M97.15,79.338c4.857-6.946,10.916-12.894,18.008-17.678c8.119-5.477,17.088-9.106,26.657-10.788
		c8.355-1.469,16.833-1.389,25.198,0.238c9.6,1.867,18.508,5.642,26.479,11.221c6.935,4.854,12.872,10.906,17.648,17.987
		c5.546,8.221,9.195,17.307,10.848,27.004c1.332,7.812,1.294,15.727-0.075,23.551c0.709,0.373,1.411,0.749,2.107,1.126
		c1.544-8.319,1.62-16.745,0.203-25.058c-1.707-10.017-5.476-19.401-11.203-27.891c-4.932-7.313-11.064-13.563-18.227-18.577
		c-8.233-5.763-17.434-9.662-27.347-11.589c-8.638-1.679-17.394-1.762-26.023-0.246c-9.884,1.737-19.148,5.485-27.532,11.142
		c-7.324,4.94-13.582,11.083-18.598,18.258c-5.751,8.226-9.643,17.417-11.567,27.316l2.226,0.434
		C87.814,96.201,91.582,87.302,97.15,79.338z"/>
</g>
</svg>
