<?xml version="1.0" encoding="utf-8"?>
<!-- Generator: Adobe Illustrator 16.0.4, SVG Export Plug-In . SVG Version: 6.00 Build 0)  -->
<!DOCTYPE svg PUBLIC "-//W3C//DTD SVG 1.1//EN" "http://www.w3.org/Graphics/SVG/1.1/DTD/svg11.dtd">
<svg version="1.1" id="Ebene_1" xmlns="http://www.w3.org/2000/svg" xmlns:xlink="http://www.w3.org/1999/xlink" x="0px" y="0px"
	 width="1150.87px" height="453.543px" viewBox="0 0 1150.87 453.543" enable-background="new 0 0 1150.87 453.543"
	 xml:space="preserve">
<g>
	<defs>
		<rect id="SVGID_1_" width="1150.866" height="453.543"/>
	</defs>
	<clipPath id="SVGID_2_">
		<use xlink:href="#SVGID_1_"  overflow="visible"/>
	</clipPath>
	<path clip-path="url(#SVGID_2_)" d="M446.602,318.21h28.281v-78.855h-28.281V318.21z M138.731,239.354H110.45v78.855h28.281
		v-41.782h44.703v-21.879h-44.703V239.354z M0,232.335h41.793l-12.752-22.607H0V232.335z M67.054,232.335h26.609v-22.607H67.054
		V232.335z M64.621,318.21h29.041v-78.855H67.054v37.226h-0.305l-20.996-37.226H0v78.855h26.609v-67.611h0.304L64.621,318.21z
		 M110.45,232.335h79.978v-22.607H110.45V232.335z M199.537,232.335h92.186c-8.693-14.485-24.409-22.607-45.507-22.607h-46.679
		V232.335z M299.433,263.513c0-9.078-1.468-17.169-4.251-24.158h-34.129c6.599,4.75,10.099,12.704,10.099,24.006
		c0,21.728-8.515,30.083-29.954,30.539h-13.38v-54.545h-28.281v78.855h46.679C279.21,318.21,299.433,299.065,299.433,263.513
		 M311.81,232.335h28.281v-22.607H311.81V232.335z M311.81,318.21h28.281v-78.855H311.81V318.21z M396.365,272.781H369.3
		l26.761-34.186h0.304V272.781z M421.453,294.66h13.836v-21.879h-13.836v-60.471h-24.784l-47.44,58.191v24.158h46.375v23.55h25.849
		V294.66z M474.883,209.728h-28.281v22.607h28.281V209.728z M542.865,318.21h25.848v-50.595c0-11.396-2.129-30.538-28.433-30.538
		c-9.427,0-20.071,5.013-24.784,13.065h-0.304v-10.787h-25.088v78.854h25.848v-42.998c0-8.66,4.257-16.864,13.988-16.864
		c14.141,0,12.925,10.939,12.925,21.727V318.21z M634.566,276.731c0,9.875-4.715,18.385-15.661,18.385
		c-10.645,0-14.901-9.269-14.901-18.536c0-9.725,3.649-19.752,15.053-19.752C630.613,256.828,634.566,266.704,634.566,276.731
		 M659.046,308.638v-69.282h-24.784v9.875h-0.304c-4.562-8.052-11.708-12.153-21.135-12.153c-22.352,0-34.667,17.624-34.667,38.591
		c0,22.183,10.795,39.199,34.667,39.199c8.362,0,16.269-4.255,20.982-11.548h0.305v7.445c0,9.725-1.218,18.384-13.532,18.384
		c-3.954,0-7.147-0.456-9.428-1.671c-2.433-1.216-3.802-3.343-4.409-6.837h-25.849c3.041,21.119,20.374,25.221,38.772,25.221
		C656.613,345.861,659.046,321.552,659.046,308.638"/>
	<path clip-path="url(#SVGID_2_)" fill="#FFA600" d="M819.303,105.747c2.688-5.194,4.229-11.075,4.229-17.325
		c0-20.875-16.921-37.796-37.795-37.796s-37.796,16.921-37.796,37.796c0,20.873,16.922,37.795,37.796,37.795
		c12.229,0,23.07-5.835,29.979-14.844l262.477,151.521c0.861-2.071,1.896-4.046,3.096-5.911L819.303,105.747z"/>
	<path clip-path="url(#SVGID_2_)" fill="#60017D" d="M936.991,415.748c0,20.874,16.921,37.795,37.796,37.795
		c20.874,0,37.795-16.921,37.795-37.795s-16.921-37.795-37.795-37.795c-6.278,0-12.186,1.554-17.396,4.262L806.118,120.204
		c-1.864,1.202-3.855,2.209-5.925,3.073l151.578,262.538C942.798,392.726,936.991,403.546,936.991,415.748"/>
	<path clip-path="url(#SVGID_2_)" fill="#FF0000" d="M1150.807,277.404c0-20.874-16.922-37.795-37.796-37.795
		c-20.13,0-36.536,15.748-37.685,35.589l-302.542,0.008c0.049,0.779,0.13,1.549,0.13,2.34c0,1.465-0.103,2.904-0.266,4.326
		l302.853-0.008c2.21,18.768,18.147,33.335,37.51,33.335C1133.885,315.199,1150.807,298.277,1150.807,277.404"/>
	<path clip-path="url(#SVGID_2_)" fill="#FFFF00" d="M1028.387,104.658l-262.216,151.37c-6.825-9.829-18.18-16.278-31.053-16.278
		c-20.874,0-37.796,16.922-37.796,37.796c0,20.873,16.922,37.796,37.796,37.796s37.796-16.923,37.796-37.796
		c0-5.615-1.258-10.927-3.454-15.718l262.311-151.426C1030.476,108.601,1029.352,106.678,1028.387,104.658"/>
	<path clip-path="url(#SVGID_2_)" fill="#819CC9" d="M1075.394,173.777l-302.597,0.007c-1.217-19.777-17.596-35.453-37.679-35.453
		c-20.874,0-37.796,16.921-37.796,37.795s16.922,37.795,37.796,37.795c19.41,0,35.383-14.636,37.53-33.47l302.879-0.008
		c-0.165-1.416-0.253-2.855-0.253-4.316C1075.274,175.333,1075.346,174.558,1075.394,173.777"/>
	<path clip-path="url(#SVGID_2_)" fill="#FF5A00" d="M1027.226,350.401c-1.624,4.216-2.552,8.779-2.552,13.567
		c0,20.874,16.922,37.795,37.797,37.795c20.873,0,37.795-16.921,37.795-37.795s-16.922-37.795-37.795-37.795
		c-13.703,0-25.668,7.315-32.295,18.231L768.694,193.44c-1.026,1.988-2.226,3.871-3.574,5.634L1027.226,350.401z"/>
	<path clip-path="url(#SVGID_2_)" fill="#F50153" d="M911.2,37.795C911.2,16.921,894.278,0,873.404,0s-37.795,16.921-37.795,37.795
		S852.53,75.59,873.404,75.59c5.146,0,10.05-1.037,14.521-2.9l151.095,261.731c1.74-1.389,3.603-2.615,5.573-3.683L893.822,69.57
		C904.267,62.844,911.2,51.14,911.2,37.795"/>
	<path clip-path="url(#SVGID_2_)" fill="#0A51A1" d="M835.609,415.748c0,20.874,16.922,37.795,37.796,37.795
		s37.795-16.921,37.795-37.795c0-20.142-15.768-36.556-35.625-37.687V75.481c-0.723,0.041-1.438,0.109-2.17,0.109
		c-1.525,0-3.02-0.117-4.496-0.292v302.945C850.158,380.471,835.609,396.397,835.609,415.748"/>
	<path clip-path="url(#SVGID_2_)" fill="#A60000" d="M1012.582,37.795C1012.582,16.921,995.661,0,974.787,0
		S936.99,16.921,936.99,37.795c0,19.31,14.49,35.208,33.186,37.486v302.955c1.511-0.187,3.049-0.284,4.611-0.284
		c0.693,0,1.371,0.066,2.056,0.104V75.486C996.755,74.412,1012.582,57.975,1012.582,37.795"/>
	<path clip-path="url(#SVGID_2_)" fill="#005824" d="M1100.266,88.47c0-20.874-16.922-37.795-37.796-37.795
		s-37.796,16.921-37.796,37.795c0,12.592,6.183,23.714,15.651,30.583L888.893,381.336c2.043,0.918,3.981,2.016,5.812,3.267
		l151.345-262.131c4.971,2.406,10.527,3.793,16.42,3.793C1083.344,126.265,1100.266,109.344,1100.266,88.47"/>
	<path clip-path="url(#SVGID_2_)" fill="#80C41C" d="M952.646,68.359L801.211,330.68c-4.726-2.126-9.951-3.336-15.47-3.336
		c-20.874,0-37.796,16.922-37.796,37.796s16.922,37.795,37.796,37.795s37.795-16.921,37.795-37.795
		c0-12.973-6.541-24.412-16.499-31.218L958.371,71.778C956.355,70.805,954.443,69.661,952.646,68.359"/>
	<path clip-path="url(#SVGID_2_)" fill="#13007C" d="M1150.866,176.126c0-20.874-16.922-37.795-37.795-37.795
		c-20.875,0-37.796,16.921-37.796,37.795c0,5.797,1.343,11.268,3.677,16.179L816.833,343.691c1.261,1.822,2.322,3.782,3.251,5.816
		l262.241-151.454c6.854,9.592,18.056,15.867,30.746,15.867C1133.944,213.921,1150.866,197,1150.866,176.126"/>
</g>
</svg>
